<svg width="111" height="110" viewBox="0 0 111 110" fill="none" xmlns="http://www.w3.org/2000/svg">
<path d="M64.0908 12.1282L66.8033 12.6381L66.5572 13.9471L62.1936 13.1268L63.7411 4.89503L65.3922 5.20541L64.0908 12.1282Z" fill="white"/>
<path d="M74.4413 9.45683L73.5543 11.3603L76.1103 12.5515L75.5477 13.7588L72.9916 12.5676L72.0539 14.5798L74.9362 15.9231L74.3584 17.1631L69.9532 15.1101L73.4964 7.50722L77.9016 9.56015L77.3237 10.8001L74.4413 9.45683Z" fill="white"/>
<path d="M88.5113 16.7174L87.6272 17.7455L85.9349 16.2902L81.3578 21.6129L80.084 20.5175L84.6611 15.1948L82.9687 13.7396L83.8529 12.7114L88.5113 16.7174Z" fill="white"/>
<path d="M95.153 23.9432L96.215 25.3517L93.0202 26.1374L92.3266 25.2176L95.153 23.9432Z" fill="white"/>
<path d="M93.701 38.1148C93.4695 37.5787 93.3519 37.0543 93.3484 36.5417C93.3481 36.0364 93.4666 35.5844 93.7039 35.1856C93.9413 34.7868 94.2934 34.4823 94.7602 34.2719L95.4739 35.9244C95.1676 36.0828 94.9655 36.3009 94.8675 36.5784C94.7727 36.8634 94.8014 37.1821 94.9536 37.5346C95.1091 37.8945 95.3156 38.1408 95.5734 38.2735C95.8384 38.403 96.1105 38.4075 96.3896 38.287C96.6173 38.1887 96.7744 38.038 96.8611 37.835C96.9477 37.6321 96.9854 37.4066 96.9742 37.1588C96.9735 36.9151 96.9453 36.5874 96.8895 36.1758C96.8208 35.6129 96.7879 35.1434 96.7911 34.7674C96.8048 34.3955 96.9057 34.0338 97.0938 33.6825C97.2924 33.3353 97.6341 33.057 98.1188 32.8477C98.5742 32.651 99.0199 32.5936 99.4561 32.6754C99.8922 32.7571 100.287 32.9656 100.641 33.3008C101.002 33.6328 101.297 34.0632 101.526 34.592C101.868 35.3851 101.951 36.1118 101.774 36.772C101.608 37.4364 101.191 37.9433 100.523 38.2929L99.79 36.5963C100.048 36.4674 100.216 36.26 100.292 35.9741C100.38 35.6923 100.349 35.3789 100.2 35.0337C100.07 34.7325 99.8882 34.5235 99.6547 34.4065C99.4243 34.2968 99.1623 34.3054 98.8685 34.4323C98.6629 34.5211 98.5188 34.6617 98.4364 34.8542C98.3644 35.0508 98.3272 35.2673 98.3247 35.5037C98.3327 35.7442 98.3609 36.0719 98.4094 36.4867C98.4782 37.0495 98.5073 37.5206 98.4968 37.8998C98.4863 38.2791 98.3833 38.646 98.1879 39.0005C97.9924 39.3551 97.656 39.6354 97.1786 39.8416C96.7673 40.0192 96.3394 40.0776 95.8949 40.0169C95.4504 39.9561 95.0328 39.7661 94.6422 39.4468C94.259 39.1243 93.9452 38.6803 93.701 38.1148Z" fill="white"/>
<path d="M96.7806 60.4975L100.779 57.8088L97.0634 57.4626L97.2192 55.7898L105.559 56.5669L105.403 58.2397L101.663 57.8912L105.12 61.2745L104.932 63.2938L101.119 59.4675L96.5835 62.6123L96.7806 60.4975Z" fill="white"/>
<path d="M101.051 71.8634L99.1095 71.0633L98.0351 73.6706L96.8035 73.1631L97.8779 70.5558L95.8254 69.71L94.6138 72.6502L93.349 72.129L95.2006 67.6355L102.956 70.8313L101.104 75.3247L99.8395 74.8035L101.051 71.8634Z" fill="white"/>
<path d="M93.5922 85.0532L91.987 83.6991L90.1687 85.8546L89.1506 84.9957L90.9689 82.8402L89.272 81.4088L87.2216 83.8395L86.1759 82.9574L89.3096 79.2426L95.7211 84.6511L92.5874 88.3659L91.5417 87.4838L93.5922 85.0532Z" fill="white"/>
<path d="M77.9861 96.6535C77.7526 96.2711 77.6259 95.8564 77.6059 95.4093C77.5791 94.9663 77.6977 94.5236 77.9618 94.0811C78.2191 93.6428 78.6413 93.2443 79.2285 92.8858L80.4267 92.154L78.7505 89.4093L80.1843 88.5337L84.5498 95.6821L81.9178 97.2895C81.3648 97.6272 80.8353 97.8194 80.3294 97.8658C79.8235 97.9123 79.3728 97.8267 78.9773 97.6089C78.575 97.3953 78.2446 97.0768 77.9861 96.6535ZM79.9966 94.0055C79.6006 94.2473 79.3613 94.5154 79.2785 94.8096C79.1999 95.1107 79.2607 95.4251 79.4608 95.7529C79.8861 96.4493 80.4879 96.5598 81.2663 96.0845L82.4031 95.3902L81.1334 93.3113L79.9966 94.0055Z" fill="white"/>
<path d="M57.7098 104.95L57.1113 96.5957L58.787 96.4756L59.3855 104.83L57.7098 104.95Z" fill="white"/>
<path d="M43.7284 95.2585L45.3816 95.5573L48.1028 101.89L49.125 96.2337L50.7782 96.5325L49.2866 104.787L47.6334 104.488L44.9143 98.1434L43.89 103.812L42.2368 103.513L43.7284 95.2585Z" fill="white"/>
<path d="M27.9487 92.1993C27.4159 92.8278 26.7996 93.2703 26.0998 93.5266C25.3888 93.7838 24.6728 93.8428 23.9519 93.7036C23.2196 93.5652 22.5484 93.2374 21.9381 92.7201C21.2242 92.1148 20.7539 91.4015 20.5273 90.5801C20.3007 89.7587 20.3548 88.9341 20.6895 88.1062L22.1632 89.3555C22.051 89.7848 22.0645 90.1895 22.2037 90.5697C22.3368 90.9447 22.5772 91.2796 22.925 91.5745C23.2973 91.8901 23.7049 92.0835 24.1478 92.1549C24.5794 92.2272 25.0122 92.1745 25.4459 91.9968C25.8736 91.814 26.2685 91.509 26.6306 91.0819C26.9876 90.6608 27.2238 90.2213 27.3393 89.7634C27.4436 89.3064 27.4273 88.8679 27.2905 88.4478C27.1425 88.0286 26.8823 87.6612 26.5101 87.3456C26.1622 87.0508 25.7925 86.8684 25.4007 86.7985C24.9977 86.7295 24.5937 86.7855 24.1886 86.9665L22.7149 85.7171C23.482 85.2453 24.2892 85.0539 25.1366 85.143C25.9727 85.233 26.7508 85.5833 27.4709 86.1937C28.0811 86.711 28.517 87.3165 28.7785 88.0101C29.0287 88.7047 29.0877 89.4207 28.9555 90.1581C28.8171 90.8904 28.4816 91.5708 27.9487 92.1993Z" fill="white"/>
<path d="M19.1315 76.216C19.5464 76.8812 19.7714 77.5895 19.8063 78.3409C19.8413 79.0922 19.6855 79.8023 19.3389 80.4711C18.9856 81.1441 18.4593 81.6986 17.7602 82.1347C17.0678 82.5666 16.3452 82.7911 15.5921 82.8083C14.8323 82.8297 14.1227 82.6594 13.4632 82.2976C12.8038 81.9358 12.2666 81.4223 11.8517 80.7571C11.4325 80.0851 11.2076 79.3768 11.1768 78.6323C11.1419 77.8809 11.3032 77.1721 11.6608 76.5059C12.0073 75.8371 12.5268 75.2868 13.2191 74.8549C13.9183 74.4188 14.6477 74.1901 15.4076 74.1687C16.1564 74.1448 16.8605 74.3137 17.5199 74.6755C18.1793 75.0373 18.7165 75.5509 19.1315 76.216ZM17.8588 77.0099C17.592 76.5823 17.262 76.2649 16.8687 76.0576C16.4686 75.8546 16.0316 75.7737 15.5575 75.8148C15.0834 75.8559 14.6088 76.0247 14.1337 76.3211C13.6586 76.6175 13.3017 76.9674 13.063 77.3708C12.8176 77.7785 12.7015 78.2045 12.7147 78.6489C12.7278 79.0932 12.8678 79.5292 13.1346 79.9569C13.4013 80.3845 13.7334 80.7053 14.131 80.9194C14.5243 81.1266 14.9579 81.2097 15.432 81.1685C15.8993 81.1316 16.3705 80.965 16.8456 80.6686C17.3208 80.3722 17.681 80.0202 17.9265 79.6125C18.1719 79.2048 18.2914 78.7767 18.285 78.3281C18.2676 77.8769 18.1255 77.4376 17.8588 77.0099Z" fill="white"/>
<path d="M13.3619 61.0623L13.774 62.691L9.13489 67.7889L14.7072 66.3788L15.1194 68.0074L6.9877 70.0652L6.57556 68.4365L11.2264 63.3357L5.64237 64.7487L5.23023 63.1201L13.3619 61.0623Z" fill="white"/>
<path d="M4.7939 49.2523L6.14944 49.288L6.0908 51.5192L13.1084 51.7036L13.0642 53.383L6.04666 53.1986L5.98802 55.4298L4.63249 55.3942L4.7939 49.2523Z" fill="white"/>
<path d="M13.9999 39.8156L12.9749 42.9903L14.3241 44.006L13.782 45.6846L6.7253 40.241L7.32631 38.3796L16.234 38.0907L15.6883 39.7807L13.9999 39.8156ZM12.5808 39.8366L8.87392 39.9133L11.836 42.1434L12.5808 39.8366Z" fill="white"/>
<path d="M15.6959 30.0922C15.0321 29.604 14.5482 29.0197 14.2442 28.3393C13.9385 27.6478 13.8302 26.9375 13.9194 26.2087C14.0069 25.4686 14.2876 24.7764 14.7615 24.1319C15.3161 23.3778 15.9953 22.8594 16.799 22.5767C17.6028 22.2939 18.4292 22.291 19.2783 22.5678L18.1336 24.1242C17.6976 24.0419 17.2948 24.0833 16.9251 24.2484C16.5602 24.407 16.2427 24.67 15.9725 25.0373C15.6834 25.4305 15.5185 25.8504 15.4779 26.2972C15.4356 26.7329 15.518 27.1609 15.7252 27.5814C15.9371 27.9954 16.2686 28.3683 16.7197 28.7001C17.1644 29.0271 17.6191 29.2325 18.084 29.3161C18.5471 29.3886 18.9834 29.3421 19.3931 29.1766C19.8011 29 20.1496 28.7151 20.4387 28.322C20.7089 27.9546 20.8653 27.5731 20.908 27.1775C20.949 26.7707 20.8652 26.3715 20.6568 25.9798L21.8014 24.4234C22.3251 25.1561 22.5717 25.9482 22.5413 26.7998C22.5092 27.6401 22.2135 28.4405 21.6542 29.201C21.1803 29.8455 20.6063 30.3221 19.9324 30.6308C19.2567 30.9284 18.5465 31.0367 17.8017 30.9556C17.0617 30.8682 16.3597 30.5804 15.6959 30.0922Z" fill="white"/>
<path d="M27.2367 12.3592L28.0708 13.4283L26.311 14.8013L30.6293 20.3361L29.3047 21.3695L24.9865 15.8348L23.2267 17.2077L22.3926 16.1386L27.2367 12.3592Z" fill="white"/>
<path d="M46.1997 11.1016C45.9023 11.1649 45.6135 11.1527 45.3331 11.0651C45.0511 10.9698 44.8091 10.8127 44.6071 10.5939C44.413 10.3735 44.2843 10.1146 44.221 9.81727C44.1561 9.5121 44.1674 9.21934 44.255 8.93897C44.3504 8.65694 44.5083 8.41887 44.7287 8.22474C44.9475 8.02279 45.2055 7.89018 45.5029 7.82691C45.808 7.76197 46.1016 7.7772 46.3837 7.87259C46.6719 7.9585 46.913 8.11166 47.1071 8.33208C47.3091 8.55084 47.4425 8.81281 47.5075 9.11797C47.5707 9.41532 47.5547 9.705 47.4593 9.98703C47.3717 10.2674 47.2146 10.5094 46.9881 10.713C46.7676 10.9071 46.5048 11.0367 46.1997 11.1016Z" fill="white"/>
</svg>
