<svg width="92" height="73" viewBox="0 0 92 73" fill="none" xmlns="http://www.w3.org/2000/svg">
<path d="M0 1.30182H2.20308V71.6001H0V72.8018H14.0196V71.6001H13.619C7.91106 71.1995 3.5049 66.493 3.5049 60.785V3.10434L41.8585 72.8018H48.7682V1.30182H50.9713V0H36.9517V1.20168L37.3522 1.30182C43.0602 1.60224 47.4664 6.30882 47.4664 12.0168V69.6974L9.11274 0H0V1.30182Z" fill="black"/>
<path d="M45.6693 0V1.30182H47.8724V71.6001H45.6693V72.9019H54.5818L55.0825 72.8018H55.1826C60.0895 72.8018 64.7961 71.8004 69.3024 69.8977C73.6084 67.9951 77.4137 65.3914 80.7183 62.0868C84.0229 58.682 86.6266 54.7766 88.4291 50.4706C90.3318 46.0644 91.233 41.2577 91.233 36.451C91.233 31.5441 90.3318 26.7374 88.4291 22.3312C86.6266 18.0252 84.0229 14.1197 80.7183 10.8151C77.4137 7.41036 73.6084 4.80672 69.3024 2.90406C64.7961 1.00141 60.0895 0 55.1826 0H45.6693ZM55.0825 1.30182H55.1826C62.8934 1.40196 70.1035 5.10714 75.511 11.6162C81.0187 18.3256 84.0229 27.0378 84.0229 36.451C84.0229 45.764 81.0187 54.5763 75.511 61.1855C70.1035 67.7948 62.8934 71.3998 55.1826 71.6001H55.0825V1.30182Z" fill="black"/>
</svg>
