<svg width="92" height="74" viewBox="0 0 92 74" fill="none" xmlns="http://www.w3.org/2000/svg">
<path d="M0.504913 1.50003H2.70799V71.7983H0.504913V73H14.5245V71.7983H14.124C8.41597 71.3978 4.00981 66.6912 4.00981 60.9832V3.30255L42.3634 73H49.2731V1.50003H51.4762V0.198212H37.4566V1.39989L37.8571 1.50003C43.5651 1.80045 47.9713 6.50703 47.9713 12.215V69.8957L9.61765 0.198212H0.504913V1.50003Z" fill="white"/>
<path d="M46.1742 0.198212V1.50003H48.3773V71.7983H46.1742V73.1001H55.0867L55.5874 73H55.6875C60.5944 73 65.301 71.9986 69.8073 70.0959C74.1133 68.1933 77.9186 65.5896 81.2232 62.285C84.5279 58.8803 87.1315 54.9748 88.934 50.6688C90.8367 46.2626 91.7379 41.4559 91.7379 36.6492C91.7379 31.7423 90.8367 26.9356 88.934 22.5294C87.1315 18.2234 84.5279 14.318 81.2232 11.0133C77.9186 7.60857 74.1133 5.00494 69.8073 3.10228C65.301 1.19962 60.5944 0.198212 55.6875 0.198212H46.1742ZM55.5874 1.50003H55.6875C63.3983 1.60017 70.6084 5.30535 76.016 11.8145C81.5237 18.5238 84.5279 27.236 84.5279 36.6492C84.5279 45.9622 81.5237 54.7745 76.016 61.3838C70.6084 67.993 63.3983 71.598 55.6875 71.7983H55.5874V1.50003Z" fill="white"/>
</svg>
